{"title":"Love And Friendship 2016 Movies HDRip XviD AAC New +Sample ☻rDX☻","uid":15483654,"size":740042468,"categoryP":"video","categoryS":"movies","magnet":"?xt=urn:btih:88dccf6b361ed9171d49f77c5827c243143d6a5f&amp;dn=Love+And+Friendship+2016+Movies+HDRip+XviD+AAC+New+%2BSample+%E2%98%BBrDX%E2%98%BB&amp;tr=udp%3A%2F%2Ftracker.leechers-paradise.org%3A6969&amp;tr=udp%3A%2F%2Fzer0day.ch%3A1337&amp;tr=udp%3A%2F%2Fopen.demonii.com%3A1337&amp;tr=udp%3A%2F%2Ftracker.coppersurfer.tk%3A6969&amp;tr=udp%3A%2F%2Fexodus.desync.com%3A6969","seeders":0,"leechers":2,"uploader":"basicssom","files":2,"time":1470289328,"description":"----------------------------------------------------------------\r\nLove And Friendship 2016 English Movies HDRip XviD AAC New Source with Sample ☻rDX☻\r\n\r\nSCREEN SHOTS &amp; POSTER:\r\n  \nhttp://postimage.co.nr/2016/8/sell/index.htm  \nhttp://postimage.co.nr/2016/8/sell/1.html  \nhttp://postimage.co.nr/2016/8/sell/2.html  \nhttp://postimage.co.nr/2016/8/sell/3.html  \nhttp://postimage.co.nr/2016/8/sell/4.html  \nhttp://postimage.co.nr/2016/8/sell/5.html  \nhttp://postimage.co.nr/2016/8/sell/6.html  \nhttp://postimage.co.nr/2016/8/sell/7.html  \nhttp://postimage.co.nr/2016/8/sell/8.html  \nhttp://postimage.co.nr/2016/8/sell/9.html  \nhttp://postimage.co.nr/2016/8/sell/10.html\r\n\r\nFormat                                   : Matroska\r\nFormat version                           : Version 4 / Version 2\r\nFile size                                : 699 MiB\r\nDuration                                 : 1 h 33 min\r\nOverall bit rate mode                    : Constant\r\nOverall bit rate                         : 1 045 kb/s\r\nMovie name                               : Love And Friendship 2016 English Movies HDRip XviD AAC New Source ☻rDX☻\r\n\r\nVideo\r\nID                                       : 2\r\nFormat                                   : AVC\r\nFormat/Info                              : Advanced Video Codec\r\nFormat profile                           :   \r\nFormat settings, CABAC                   : Yes\r\nFormat settings, ReFrames                : 2 frames\r\nFormat settings, GOP                     : M=1, N=12\r\nCodec ID                                 : V_MPEG4/ISO/AVC\r\nDuration                                 : 1 h 33 min\r\nBit rate mode                            : Constant\r\nBit rate                                 : 662 kb/s\r\nWidth                                    : 720 pixels\r\nHeight                                   : 384 pixels\r\nDisplay aspect ratio                     : 1.85:1\r\nFrame rate mode                          : Constant\r\nFrame rate                               : 24.000 FPS\r\nColor space                              : YUV\r\nChroma subsampling                       : 4:2:0\r\nBit depth                                : 8 bits\r\nScan type                                : Progressive\r\nBits/(Pixel*Frame)                       : 0.100\r\nStream size                              : 428 MiB (61%)\r\nTitle                                    : ☻rDX☻\r\nDefault                                  : Yes\r\nForced                                   : No\r\n\r\nAudio\r\nID                                       : 1\r\nFormat                                   : AC-3\r\nFormat/Info                              : Audio Coding 3\r\nMode extension                           : CM (complete main)\r\nFormat settings, Endianness              : Big\r\nCodec ID                                 : A_AC3\r\nDuration                                 : 1 h 33 min\r\nBit rate mode                            : Constant\r\nBit rate                                 : 384 kb/s\r\nChannel(s)                               : 6 channels\r\nChannel positions                        : Front: L C R, Side: L R, LFE\r\nSampling rate                            : 48.0 kHz\r\nFrame rate                               : 31.250 FPS (1536 spf)\r\nCompression mode                         : Lossy\r\nStream size                              : 257 MiB (37%)\r\nTitle                                    : ☻rDX☻\r\nDefault                                  : Yes\r\nForced                                   : No\r\n\r\nIMDB \nhttp://www.imdb.com/title/tt3068194/","torrent":{"xt":"urn:btih:88dccf6b361ed9171d49f77c5827c243143d6a5f","amp;dn":"Love+And+Friendship+2016+Movies+HDRip+XviD+AAC+New+%2BSample+%E2%98%BBrDX%E2%98%BB","amp;tr":["udp%3A%2F%2Ftracker.leechers-paradise.org%3A6969","udp%3A%2F%2Fzer0day.ch%3A1337","udp%3A%2F%2Fopen.demonii.com%3A1337","udp%3A%2F%2Ftracker.coppersurfer.tk%3A6969","udp%3A%2F%2Fexodus.desync.com%3A6969"],"infoHash":"88dccf6b361ed9171d49f77c5827c243143d6a5f","infoHashBuffer":{"type":"Buffer","data":[136,220,207,107,54,30,217,23,29,73,247,124,88,39,194,67,20,61,106,95]},"announce":[],"urlList":[]}}